<svg xmlns="http://www.w3.org/2000/svg" width="125" height="126.905" viewBox="0 0 125 126.905">
  <g id="Logo" transform="translate(-125.5 -331.095)">
    <g id="Logo_only" data-name="Logo only" transform="translate(149.903 -694.109)">
      <g id="Group_67509" data-name="Group 67509">
        <path id="Path_74818" data-name="Path 74818" d="M31.4,1032.5a3.057,3.057,0,1,0,3.057,3.058A3.058,3.058,0,0,0,31.4,1032.5Zm-12.229,18.344a3.057,3.057,0,1,0,3.057,3.058A3.058,3.058,0,0,0,19.174,1050.848Zm24.458,0a3.057,3.057,0,1,0,3.057,3.058A3.058,3.058,0,0,0,43.632,1050.848Z" transform="matrix(0.966, 0.259, -0.259, 0.966, 280.671, 29.651)" fill="#0052cc"/>
        <path id="Path_74823" data-name="Path 74823" d="M19.174,1050.848a3.057,3.057,0,1,0,3.057,3.058A3.058,3.058,0,0,0,19.174,1050.848Z" transform="matrix(0.966, 0.259, -0.259, 0.966, 277.671, 39.651)" fill="#998dd9"/>
        <path id="Path_74819" data-name="Path 74819" d="M19.126,1026.39a3.057,3.057,0,0,0-3.01,3.058v12.229a3.057,3.057,0,0,0,6.115,0v-12.229a3.058,3.058,0,0,0-3.105-3.093Zm24.458,0a3.057,3.057,0,0,0-3.01,3.058v12.229a3.057,3.057,0,0,0,6.115,0v-12.229a3.058,3.058,0,0,0-3.105-3.093Zm-12.229,18.26a3.06,3.06,0,0,0-3.01,3.141v6.115a3.057,3.057,0,0,0,6.115,0v-6.115a3.058,3.058,0,0,0-3.105-3.1Z" transform="matrix(0.966, 0.259, -0.259, 0.966, 280.671, 29.651)" fill="#b3d4ff"/>
      </g>
      <path id="Path_74821" data-name="Path 74821" d="M19.126,1056.927a3.057,3.057,0,0,1-3.01-3.058V1041.64a3.057,3.057,0,0,1,6.115,0v12.229a3.058,3.058,0,0,1-3.105,3.093Zm24.459,0a3.057,3.057,0,0,1-3.01-3.058V1041.64a3.057,3.057,0,0,1,6.115,0v12.229a3.058,3.058,0,0,1-3.105,3.093Zm-12.229-18.261a3.06,3.06,0,0,1-3.01-3.141v-6.115a3.057,3.057,0,0,1,6.115,0v6.115a3.058,3.058,0,0,1-3.105,3.1Z" transform="translate(6 40)" fill="#0747a6"/>
      <path id="Path_74817" data-name="Path 74817" d="M13.059,1063.078A3.057,3.057,0,0,0,10,1066.135v8.957q0,.107,0,.214v30.573a12.27,12.27,0,0,0,12.229,12.229H52.8a12.27,12.27,0,0,0,12.229-12.229h6.115a12.37,12.37,0,0,0,8.238-3.214,12.042,12.042,0,0,0,3.991-9.015v-6.115a12.271,12.271,0,0,0-12.229-12.229H65.033v-9.172a3.058,3.058,0,0,0-3.057-3.058H13.059Zm3.057,6.115h42.8v36.688a6.035,6.035,0,0,1-6.115,6.115H22.231a6.035,6.035,0,0,1-6.115-6.115v-7.823q0-.1,0-.2v-28.662Zm48.917,12.229h6.115a6.036,6.036,0,0,1,6.115,6.115v6.115a6.035,6.035,0,0,1-6.115,6.115H65.033v-1.708q0-.1,0-.2v-16.433Z" transform="translate(0 0)" fill="#4c9aff"/>
    </g>
    <text id="Fantipp" transform="translate(187.5 452)" fill="#2684ff" font-size="24" font-family="SegoeUI-BoldItalic, Segoe UI" font-weight="700" font-style="italic" letter-spacing="-0.008em"><tspan x="-61.045" y="0">SocialBook</tspan></text>
  </g>
</svg>
